<?xml version="1.0" encoding="utf-8"?>
<!-- Generator: Adobe Illustrator 26.5.0, SVG Export Plug-In . SVG Version: 6.00 Build 0)  -->
<svg version="1.1" xmlns="http://www.w3.org/2000/svg" xmlns:xlink="http://www.w3.org/1999/xlink" x="0px" y="0px"
	 viewBox="0 0 1556.8 1975.9" style="enable-background:new 0 0 1556.8 1975.9;" xml:space="preserve">
<style type="text/css">
	.st0{fill:#231F20;}
	.st1{fill:#98989A;}
	.st2{fill:#FFFFFF;}
	.st3{fill:#0066B2;}
	.st4{fill:#EC1C24;}
</style>
<g id="Layer_3">
</g>
<g id="Layer_2">
</g>
<g id="Layer_1">
	<rect x="60.1" y="514.6" class="st0" width="1443.6" height="401.2"/>
	<path class="st0" d="M227.1,152.2h167.3l-15.8,64.4h-80.2l-7.9,33.8h83.7l-14.6,59.7h-82.6L257.3,395h-86.4L227.1,152.2z"/>
	<path class="st0" d="M417.2,152.2h86.4L447.3,395h-86.4L417.2,152.2z"/>
	<path class="st0" d="M526.2,153.6l5.6-0.7c27.8-3.3,62.2-5.5,81.3-5.5c31.7,0,56.3,3.6,74.9,11.3c23.8,9.8,38.1,31.3,38.1,57.1
		c0,22.2-7.5,43.3-21.8,59.7c-12.3,14.2-23.4,21.1-46.4,28l-5.5,1.8c2.4,1.8,3.2,2.6,4.4,3.6c6.7,7.6,27,47,44,85.9h-95.2
		c-12.3-34.6-15.9-43.7-32.1-83l-19,83h-84L526.2,153.6z M590.1,267.9c27.8,0,47.2-16.4,47.2-39.7c0-12.4-9.1-18.6-27-18.6
		c-5.2,0-7.9,0.4-13.5,1.5l-13.1,56C586.5,267.6,586.9,267.9,590.1,267.9z"/>
	<path class="st0" d="M931.2,152.2h209.7l-14.7,70.3H1064L1022.8,395h-86.4l41.2-172.5h-67.5L931.2,152.2z"/>
	<path class="st0" d="M1063.2,351.6c11.6,0,21.1,9.4,21.1,21c0,11.7-9.4,21.1-21.1,21.1c-11.8,0-21-9.2-21-21.1
		C1042.2,360.9,1051.5,351.6,1063.2,351.6z M1063.2,391.1c10.3,0,18.5-8.2,18.5-18.4c0-10.3-8.2-18.5-18.5-18.5
		c-10.2,0-18.4,8.2-18.4,18.4C1044.8,383,1053,391.1,1063.2,391.1z M1055.1,361.8c1.1-0.1,1.2-0.2,3.3-0.3c2.1-0.2,3-0.2,3.9-0.2
		c6.9,0,10.3,2.7,10.3,7.8c0,3.1-1.3,5-4.1,6l-0.3,0.1c0.2,0.2,0.3,0.2,0.4,0.4c0.7,0.7,3.2,4.3,5.2,7.7h-7.9
		c-1.6-3-2.1-3.8-4.2-7.3v7.3h-6.8V361.8z M1062.7,372c1.9,0,2.9-0.9,2.9-2.6c0-1.6-1-2.5-2.9-2.5c-0.4,0-0.5,0-0.9,0.1v5
		C1062.2,372,1062.3,372,1062.7,372z"/>
	<g>
		<path class="st0" d="M709.2,388.8C733.5,396,760,400,784.9,400c33.7,0,59.5-7.6,81.7-23.7c24.6-17.5,40.4-44.4,40.4-68.8
			c0-16.4-7.1-31.3-19.8-41.9c-9.9-8-20.2-14.2-41.2-24l-17-8c-5.6-2.9-8.3-5.8-8.3-9.1c0-8.7,11.1-15.3,26.2-15.3
			c11.3,0,24.7,3.3,50.4,11.7l17.7-65.7c-19.2-5.2-37.9-7.8-56.6-7.8c-70.6,0-124.9,38.6-124.9,88.4c0,26.2,17.4,44.8,61.1,65.2
			c20.6,9.5,24.2,12,24.2,18.6c0,9.8-10.7,16-28.2,16c-15.5,0-35.3-4.7-62.2-14.6l0,0L709.2,388.8z"/>
	</g>
	<g>
		<path class="st1" d="M1343.6,337.1l20.4-21.4l-13.9-6.3l13.1-56.5l-81.4,0l18.4-79.3h-62.8l-3.2-21.4
			c-0.3,1.1-20.4,21.4-20.4,21.4l-18.4,79.3l-38.3,0l-22.7-21.4l-20.3,21.3l-1.3,5.4l-18.4,79l81.4,0l-18.4,79.3h86.4l20.4-21.4
			l-13.4-8.6l11.4-49.3L1343.6,337.1z"/>
		<polygon class="st2" points="1177.7,395 1157.4,416.4 1175.8,337 1197.6,314.2 1189.1,386 		"/>
		<polygon class="st2" points="1114.7,315.5 1094.4,337 1113.5,252.6 1134.3,231.4 1145.5,258 1118.2,314.2 		"/>
		<polygon class="st2" points="1234.1,152.2 1213.7,173.6 1199.3,235.7 1218.3,235.7 1235.7,153.9 		"/>
		<g>
			<path class="st3" d="M1234.1,152.2h86.4L1264.2,395h-86.4L1234.1,152.2z"/>
			<path class="st4" d="M1114.7,315.6l19.6-84.2l249.2,0.1l-19.6,84.2L1114.7,315.6z"/>
		</g>
	</g>
	<path class="st2" d="M227.1,589.1h167.3l-15.8,64.4h-80.2l-7.9,33.8h83.7l-14.6,59.7h-82.6l-19.8,84.8h-86.4L227.1,589.1z"/>
	<path class="st2" d="M417.2,589.1h86.4l-56.3,242.8h-86.4L417.2,589.1z"/>
	<path class="st2" d="M526.2,590.6l5.6-0.7c27.8-3.3,62.2-5.5,81.3-5.5c31.7,0,56.3,3.6,74.9,11.3c23.8,9.8,38.1,31.3,38.1,57.1
		c0,22.2-7.5,43.3-21.8,59.7c-12.3,14.2-23.4,21.1-46.4,28l-5.5,1.8c2.4,1.8,3.2,2.6,4.4,3.6c6.7,7.6,27,47,44,85.9h-95.2
		c-12.3-34.6-15.9-43.7-32.1-83l-19,83h-84L526.2,590.6z M590.1,704.9c27.8,0,47.2-16.4,47.2-39.7c0-12.4-9.1-18.6-27-18.6
		c-5.2,0-7.9,0.4-13.5,1.5l-13.1,56C586.5,704.5,586.9,704.9,590.1,704.9z"/>
	<path class="st2" d="M931.2,589.1h209.7l-14.7,70.3H1064l-41.2,172.5h-86.4l41.2-172.5h-67.5L931.2,589.1z"/>
	<path class="st2" d="M1063.2,788.5c11.6,0,21.1,9.4,21.1,21c0,11.7-9.4,21.1-21.1,21.1c-11.8,0-21-9.2-21-21.1
		C1042.2,797.8,1051.5,788.5,1063.2,788.5z M1063.2,828c10.3,0,18.5-8.2,18.5-18.4c0-10.3-8.2-18.5-18.5-18.5
		c-10.2,0-18.4,8.2-18.4,18.4C1044.8,819.9,1053,828,1063.2,828z M1055.1,798.8c1.1-0.1,1.2-0.2,3.3-0.3c2.1-0.2,3-0.2,3.9-0.2
		c6.9,0,10.3,2.7,10.3,7.8c0,3.1-1.3,5-4.1,6l-0.3,0.1c0.2,0.2,0.3,0.2,0.4,0.4c0.7,0.7,3.2,4.3,5.2,7.7h-7.9
		c-1.6-3-2.1-3.8-4.2-7.3v7.3h-6.8V798.8z M1062.7,808.9c1.9,0,2.9-0.9,2.9-2.6c0-1.6-1-2.5-2.9-2.5c-0.4,0-0.5,0-0.9,0.1v5
		C1062.2,808.9,1062.3,808.9,1062.7,808.9z"/>
	<g>
		<path class="st2" d="M709.2,825.7c24.3,7.2,50.9,11.3,75.7,11.3c33.7,0,59.5-7.6,81.7-23.7c24.6-17.5,40.4-44.4,40.4-68.8
			c0-16.4-7.1-31.3-19.8-41.9c-9.9-8-20.2-14.2-41.2-24l-17-8c-5.6-2.9-8.3-5.8-8.3-9.1c0-8.7,11.1-15.3,26.2-15.3
			c11.3,0,24.7,3.3,50.4,11.7l17.7-65.7c-19.2-5.2-37.9-7.8-56.6-7.8c-70.6,0-124.9,38.6-124.9,88.4c0,26.2,17.4,44.8,61.1,65.2
			c20.6,9.5,24.2,12,24.2,18.6c0,9.8-10.7,16-28.2,16c-15.5,0-35.3-4.7-62.2-14.6l0,0L709.2,825.7z"/>
	</g>
	<g>
		<path class="st1" d="M1343.6,774.1l20.4-21.4l-13.9-6.3l13.1-56.5l-81.4,0l18.4-79.3h-62.8l-3.2-21.4
			c-0.3,1.1-20.4,21.4-20.4,21.4l-18.4,79.3l-38.3,0l-22.7-21.4l-20.3,21.3l-1.3,5.4l-18.4,79l81.4,0l-18.4,79.3h86.4l20.4-21.4
			l-13.4-8.6l11.4-49.3L1343.6,774.1z"/>
		<polygon class="st2" points="1177.7,831.9 1157.4,853.3 1175.8,774 1197.6,751.2 1189.1,822.9 		"/>
		<polygon class="st2" points="1114.7,752.5 1094.4,773.9 1113.5,689.5 1134.3,668.3 1145.5,694.9 1118.2,751.2 		"/>
		<polygon class="st2" points="1234.1,589.1 1213.7,610.5 1199.3,672.7 1218.3,672.7 1235.7,590.9 		"/>
		<g>
			<path class="st3" d="M1234.1,589.1h86.4l-56.3,242.8h-86.4L1234.1,589.1z"/>
			<path class="st4" d="M1114.7,752.5l19.6-84.2l249.2,0.1l-19.6,84.2L1114.7,752.5z"/>
		</g>
	</g>
	<rect x="60.1" y="1414.6" class="st0" width="1443.6" height="401.2"/>
	<path class="st0" d="M227.1,1052.2h167.3l-15.8,64.4h-80.2l-7.9,33.8h83.7l-14.6,59.7h-82.6l-19.8,84.8h-86.4L227.1,1052.2z"/>
	<path class="st0" d="M417.2,1052.2h86.4l-56.3,242.8h-86.4L417.2,1052.2z"/>
	<path class="st0" d="M526.2,1053.6l5.6-0.7c27.8-3.3,62.2-5.5,81.3-5.5c31.7,0,56.3,3.6,74.9,11.3c23.8,9.8,38.1,31.3,38.1,57.1
		c0,22.2-7.5,43.3-21.8,59.7c-12.3,14.2-23.4,21.1-46.4,28l-5.5,1.8c2.4,1.8,3.2,2.6,4.4,3.6c6.7,7.6,27,47,44,85.9h-95.2
		c-12.3-34.6-15.9-43.7-32.1-83l-19,83h-84L526.2,1053.6z M590.1,1167.9c27.8,0,47.2-16.4,47.2-39.7c0-12.4-9.1-18.6-27-18.6
		c-5.2,0-7.9,0.4-13.5,1.5l-13.1,56C586.5,1167.5,586.9,1167.9,590.1,1167.9z"/>
	<path class="st0" d="M931.2,1052.2h209.7l-14.7,70.3H1064l-41.2,172.5h-86.4l41.2-172.5h-67.5L931.2,1052.2z"/>
	<path class="st0" d="M1063.2,1251.6c11.6,0,21.1,9.4,21.1,21c0,11.7-9.4,21.1-21.1,21.1c-11.8,0-21-9.2-21-21.1
		C1042.2,1260.9,1051.5,1251.6,1063.2,1251.6z M1063.2,1291.1c10.3,0,18.5-8.2,18.5-18.4c0-10.3-8.2-18.5-18.5-18.5
		c-10.2,0-18.4,8.2-18.4,18.4C1044.8,1282.9,1053,1291.1,1063.2,1291.1z M1055.1,1261.8c1.1-0.1,1.2-0.2,3.3-0.3
		c2.1-0.2,3-0.2,3.9-0.2c6.9,0,10.3,2.7,10.3,7.8c0,3.1-1.3,5-4.1,6l-0.3,0.1c0.2,0.2,0.3,0.2,0.4,0.4c0.7,0.7,3.2,4.3,5.2,7.7h-7.9
		c-1.6-3-2.1-3.8-4.2-7.3v7.3h-6.8V1261.8z M1062.7,1271.9c1.9,0,2.9-0.9,2.9-2.6c0-1.6-1-2.5-2.9-2.5c-0.4,0-0.5,0-0.9,0.1v5
		C1062.2,1271.9,1062.3,1271.9,1062.7,1271.9z"/>
	<g>
		<path class="st0" d="M709.2,1288.8c24.3,7.2,50.9,11.3,75.7,11.3c33.7,0,59.5-7.6,81.7-23.7c24.6-17.5,40.4-44.4,40.4-68.8
			c0-16.4-7.1-31.3-19.8-41.9c-9.9-8-20.2-14.2-41.2-24l-17-8c-5.6-2.9-8.3-5.8-8.3-9.1c0-8.7,11.1-15.3,26.2-15.3
			c11.3,0,24.7,3.3,50.4,11.7l17.7-65.7c-19.2-5.2-37.9-7.8-56.6-7.8c-70.6,0-124.9,38.6-124.9,88.4c0,26.2,17.4,44.8,61.1,65.2
			c20.6,9.5,24.2,12,24.2,18.6c0,9.8-10.7,16-28.2,16c-15.5,0-35.3-4.7-62.2-14.6l0,0L709.2,1288.8z"/>
	</g>
	<polygon class="st2" points="1114.7,1215.5 1094.4,1237 1113.5,1152.6 1134.3,1131.4 1145.5,1158 1118.2,1214.2 	"/>
	<g>
		<path class="st0" d="M1234.1,1052.2h86.4l-56.3,242.8h-86.4L1234.1,1052.2z"/>
		<path class="st0" d="M1114.7,1215.6l19.6-84.2l249.2,0.1l-19.6,84.2L1114.7,1215.6z"/>
	</g>
	<path class="st2" d="M227.1,1489.1h167.3l-15.8,64.4h-80.2l-7.9,33.8h83.7l-14.6,59.7h-82.6l-19.8,84.8h-86.4L227.1,1489.1z"/>
	<path class="st2" d="M417.2,1489.1h86.4l-56.3,242.8h-86.4L417.2,1489.1z"/>
	<path class="st2" d="M526.2,1490.5l5.6-0.7c27.8-3.3,62.2-5.5,81.3-5.5c31.7,0,56.3,3.6,74.9,11.3c23.8,9.8,38.1,31.3,38.1,57.1
		c0,22.2-7.5,43.3-21.8,59.7c-12.3,14.2-23.4,21.1-46.4,28l-5.5,1.8c2.4,1.8,3.2,2.6,4.4,3.6c6.7,7.6,27,47,44,85.9h-95.2
		c-12.3-34.6-15.9-43.7-32.1-83l-19,83h-84L526.2,1490.5z M590.1,1604.8c27.8,0,47.2-16.4,47.2-39.7c0-12.4-9.1-18.6-27-18.6
		c-5.2,0-7.9,0.4-13.5,1.5l-13.1,56C586.5,1604.5,586.9,1604.8,590.1,1604.8z"/>
	<path class="st2" d="M931.2,1489.1h209.7l-14.7,70.3H1064l-41.2,172.5h-86.4l41.2-172.5h-67.5L931.2,1489.1z"/>
	<path class="st2" d="M1063.2,1688.5c11.6,0,21.1,9.4,21.1,21c0,11.7-9.4,21.1-21.1,21.1c-11.8,0-21-9.2-21-21.1
		C1042.2,1697.8,1051.5,1688.5,1063.2,1688.5z M1063.2,1728c10.3,0,18.5-8.2,18.5-18.4c0-10.3-8.2-18.5-18.5-18.5
		c-10.2,0-18.4,8.2-18.4,18.4C1044.8,1719.9,1053,1728,1063.2,1728z M1055.1,1698.8c1.1-0.1,1.2-0.2,3.3-0.3c2.1-0.2,3-0.2,3.9-0.2
		c6.9,0,10.3,2.7,10.3,7.8c0,3.1-1.3,5-4.1,6l-0.3,0.1c0.2,0.2,0.3,0.2,0.4,0.4c0.7,0.7,3.2,4.3,5.2,7.7h-7.9
		c-1.6-3-2.1-3.8-4.2-7.3v7.3h-6.8V1698.8z M1062.7,1708.9c1.9,0,2.9-0.9,2.9-2.6c0-1.6-1-2.5-2.9-2.5c-0.4,0-0.5,0-0.9,0.1v5
		C1062.2,1708.9,1062.3,1708.9,1062.7,1708.9z"/>
	<g>
		<path class="st2" d="M709.2,1725.7c24.3,7.2,50.9,11.3,75.7,11.3c33.7,0,59.5-7.6,81.7-23.7c24.6-17.5,40.4-44.4,40.4-68.8
			c0-16.4-7.1-31.3-19.8-41.9c-9.9-8-20.2-14.2-41.2-24l-17-8c-5.6-2.9-8.3-5.8-8.3-9.1c0-8.7,11.1-15.3,26.2-15.3
			c11.3,0,24.7,3.3,50.4,11.7l17.7-65.7c-19.2-5.2-37.9-7.8-56.6-7.8c-70.6,0-124.9,38.6-124.9,88.4c0,26.2,17.4,44.8,61.1,65.2
			c20.6,9.5,24.2,12,24.2,18.6c0,9.8-10.7,16-28.2,16c-15.5,0-35.3-4.7-62.2-14.6l0,0L709.2,1725.7z"/>
	</g>
	<g>
		<path class="st2" d="M1234.1,1489.1h86.4l-56.3,242.8h-86.4L1234.1,1489.1z"/>
		<path class="st2" d="M1114.7,1652.5l19.6-84.2l249.2,0.1l-19.6,84.2L1114.7,1652.5z"/>
	</g>
</g>
</svg>
