<?xml version="1.0" encoding="utf-8"?>
<!-- Generator: Adobe Illustrator 26.5.0, SVG Export Plug-In . SVG Version: 6.00 Build 0)  -->
<svg version="1.1" id="Layer_1" xmlns="http://www.w3.org/2000/svg" xmlns:xlink="http://www.w3.org/1999/xlink" x="0px" y="0px"
	 viewBox="0 0 612 217.7" style="enable-background:new 0 0 612 217.7;" xml:space="preserve">
<style type="text/css">
	.st0{fill:#231F20;}
	.st1{fill:#98989A;}
	.st2{fill:#FFFFFF;}
	.st3{fill:#0066B2;}
	.st4{fill:#EC1C24;}
</style>
<path class="st0" d="M75.7,53.3h70.1l-6.6,27h-33.6l-3.3,14.2h35l-6.1,25H96.6L88.3,155H52.1L75.7,53.3z"/>
<path class="st0" d="M155.3,53.3h36.2L167.9,155h-36.2L155.3,53.3z"/>
<path class="st0" d="M200.9,53.9l2.3-0.3c11.6-1.4,26.1-2.3,34-2.3c13.3,0,23.6,1.5,31.4,4.7c10,4.1,15.9,13.1,15.9,23.9
	c0,9.3-3.2,18.1-9.1,25c-5.1,5.9-9.8,8.8-19.4,11.7l-2.3,0.8c1,0.8,1.3,1.1,1.8,1.5c2.8,3.2,11.3,19.7,18.4,36h-39.9
	c-5.1-14.5-6.6-18.3-13.5-34.8l-8,34.8h-35.2L200.9,53.9z M227.7,101.8c11.6,0,19.8-6.9,19.8-16.6c0-5.2-3.8-7.8-11.3-7.8
	c-2.2,0-3.3,0.2-5.6,0.6l-5.5,23.5C226.2,101.6,226.3,101.8,227.7,101.8z"/>
<path class="st0" d="M370.6,53.3h87.8l-6.1,29.4h-26.1L408.9,155h-36.2L390,82.7h-28.3L370.6,53.3z"/>
<path class="st0" d="M425.9,136.8c4.9,0,8.8,3.9,8.8,8.8c0,4.9-3.9,8.8-8.8,8.8c-5,0-8.8-3.9-8.8-8.8
	C417.1,140.7,421,136.8,425.9,136.8z M425.9,153.4c4.3,0,7.7-3.4,7.7-7.7c0-4.3-3.4-7.7-7.7-7.7c-4.3,0-7.7,3.4-7.7,7.7
	C418.2,150,421.6,153.4,425.9,153.4z M422.5,141.1c0.4,0,0.5-0.1,1.4-0.1c0.9-0.1,1.3-0.1,1.6-0.1c2.9,0,4.3,1.1,4.3,3.3
	c0,1.3-0.5,2.1-1.7,2.5l-0.1,0c0.1,0.1,0.1,0.1,0.2,0.2c0.3,0.3,1.3,1.8,2.2,3.2H427c-0.7-1.3-0.9-1.6-1.7-3v3h-2.8V141.1z
	 M425.6,145.4c0.8,0,1.2-0.4,1.2-1.1c0-0.7-0.4-1.1-1.2-1.1c-0.2,0-0.2,0-0.4,0v2.1C425.4,145.4,425.5,145.4,425.6,145.4z"/>
<g>
	<path class="st0" d="M277.6,152.4c10.2,3,21.3,4.7,31.7,4.7c14.1,0,24.9-3.2,34.2-9.9c10.3-7.3,16.9-18.6,16.9-28.8
		c0-6.9-3-13.1-8.3-17.5c-4.2-3.4-8.5-5.9-17.3-10.1l-7.1-3.4c-2.3-1.2-3.5-2.4-3.5-3.8c0-3.7,4.7-6.4,11-6.4
		c4.7,0,10.3,1.4,21.1,4.9l7.4-27.5c-8-2.2-15.9-3.3-23.7-3.3c-29.6,0-52.3,16.2-52.3,37c0,11,7.3,18.8,25.6,27.3
		c8.6,4,10.1,5,10.1,7.8c0,4.1-4.5,6.7-11.8,6.7c-6.5,0-14.8-2-26.1-6.1l0,0L277.6,152.4z"/>
</g>
<g>
	<path class="st1" d="M543.3,130.8l8.5-9l-5.8-2.6l5.5-23.7l-34.1,0l7.7-33.2h-26.3l-1.3-9c-0.1,0.5-8.5,9-8.5,9l-7.7,33.2l-16,0
		l-9.5-9l-8.5,8.9l-0.5,2.2l-7.7,33.1l34.1,0l-7.7,33.2h36.2l8.5-9l-5.6-3.6l4.8-20.6L543.3,130.8z"/>
	<polygon class="st2" points="473.8,155 465.3,164 473,130.7 482.2,121.2 478.6,151.3 	"/>
	<polygon class="st2" points="447.4,121.7 438.9,130.7 446.9,95.4 455.6,86.5 460.3,97.6 448.9,121.2 	"/>
	<polygon class="st2" points="497.4,53.3 488.9,62.3 482.9,88.3 490.8,88.3 498.1,54 	"/>
	<g>
		<path class="st3" d="M497.4,53.3h36.2L510,155h-36.2L497.4,53.3z"/>
		<path class="st4" d="M447.4,121.8l8.2-35.3L560,86.6l-8.2,35.3L447.4,121.8z"/>
	</g>
</g>
</svg>
