<?xml version="1.0" encoding="utf-8"?>
<!-- Generator: Adobe Illustrator 26.5.0, SVG Export Plug-In . SVG Version: 6.00 Build 0)  -->
<svg version="1.1" id="Layer_1" xmlns="http://www.w3.org/2000/svg" xmlns:xlink="http://www.w3.org/1999/xlink" x="0px" y="0px"
	 viewBox="0 0 435.4 145.1" style="enable-background:new 0 0 435.4 145.1;" xml:space="preserve">
<style type="text/css">
	.st0{fill:#FFFFFF;}
	.st1{fill:none;}
	.st2{fill:#98989A;}
	.st3{fill:#0066B2;}
	.st4{fill:#EC1C24;}
</style>
<g>
	<path class="st0" d="M371.8,55.3l5.1-22.2h-35.8l-9,9.5l-2.9,12.7l-7.4,0l4.6-22.2h-72.2h-2.4c-4.4-0.9-8.7-1.3-13-1.3
		c-11,0-21.2,3-28.8,8.4c-1.9,1.3-3.6,2.8-5.1,4.4c-2.6-4-6.4-7.2-11.1-9.1c-6-2.5-13.7-3.7-23.6-3.7c-5.5,0-14.6,0.6-22,1.4l0-0.1
		h-30.5H110H56.8l-18.9,81.7h38.3l3-12.6H94l-2.9,12.6h30.6h7.6h30h4h40.2c5,0.9,10,1.4,14.8,1.4c10.8,0,19.4-2.5,26.9-7.9
		c2.5-1.8,4.8-3.9,6.7-6.2h3.2l-3,12.6h38.3l6.4-0.4l0,0c6.6-0.3,12-5.6,12.2-12.3h9.3l-4.3,18.6h35.8l9-9.5l2.9-12.7l16,0l9-9.5
		l7.9-33.8L371.8,55.3z"/>
	<path d="M62.3,40h46.8l-4.4,18H82.3L80,67.5h23.4l-4.1,16.7H76.3l-5.5,23.7H46.5L62.3,40z"/>
	<path d="M115.5,40h24.2l-15.8,68H99.7L115.5,40z"/>
	<path d="M146,40.4l1.6-0.2c7.8-0.9,17.4-1.5,22.7-1.5c8.9,0,15.8,1,21,3.2c6.7,2.8,10.7,8.8,10.7,16c0,6.2-2.1,12.1-6.1,16.7
		c-3.4,4-6.5,5.9-13,7.8l-1.6,0.5c0.7,0.5,0.9,0.7,1.2,1c1.9,2.1,7.5,13.1,12.3,24h-26.6c-3.4-9.7-4.4-12.2-9-23.2l-5.3,23.2h-23.5
		L146,40.4z M163.9,72.4c7.8,0,13.2-4.6,13.2-11.1c0-3.5-2.6-5.2-7.5-5.2c-1.4,0-2.2,0.1-3.8,0.4l-3.7,15.7
		C162.9,72.3,163,72.4,163.9,72.4z"/>
	<path d="M259.4,40h58.7L314,59.7h-17.4L285,107.9h-24.2l11.5-48.3h-18.9L259.4,40z"/>
	<g>
		<g>
			<path class="st1" d="M296.3,106.5c2.6,0,4.8-2.1,4.8-4.8c0-2.6-2.2-4.8-4.8-4.8c-2.6,0-4.8,2.1-4.8,4.8
				C291.5,104.4,293.6,106.5,296.3,106.5z"/>
			<path d="M296.3,95.4c-3.5,0-6.3,2.8-6.3,6.3c0,3.5,2.8,6.3,6.3,6.3c3.5,0,6.3-2.8,6.3-6.3C302.6,98.2,299.8,95.4,296.3,95.4z
				 M296.3,96.9c2.6,0,4.8,2.2,4.8,4.8c0,2.6-2.2,4.8-4.8,4.8c-2.7,0-4.8-2.1-4.8-4.8C291.5,99,293.7,96.9,296.3,96.9z"/>
		</g>
		<path d="M297.8,102.5c0,0,0-0.1-0.1-0.1l0.1,0c0.8-0.3,1.1-0.8,1.1-1.7c0-1.4-1-2.2-2.9-2.2c-0.3,0-0.5,0-1.1,0.1
			c-0.6,0-0.6,0.1-0.9,0.1v6h1.9v-2c0.6,1,0.7,1.2,1.2,2h2.2C298.7,103.7,298,102.7,297.8,102.5z M296.2,101.5c-0.1,0-0.1,0-0.2,0
			v-1.4c0.1,0,0.1,0,0.3,0c0.5,0,0.8,0.3,0.8,0.7C297,101.2,296.7,101.5,296.2,101.5z"/>
	</g>
	<g>
		<path d="M197.2,106.2c6.8,2,14.2,3.2,21.2,3.2c9.4,0,16.6-2.1,22.9-6.6c6.9-4.9,11.3-12.4,11.3-19.3c0-4.6-2-8.8-5.5-11.7
			c-2.8-2.2-5.7-4-11.5-6.7l-4.8-2.2c-1.6-0.8-2.3-1.6-2.3-2.5c0-2.4,3.1-4.3,7.3-4.3c3.2,0,6.9,0.9,14.1,3.3l5-18.4
			c-5.4-1.5-10.6-2.2-15.8-2.2c-19.8,0-35,10.8-35,24.8c0,7.3,4.9,12.5,17.1,18.2c5.8,2.6,6.8,3.4,6.8,5.2c0,2.8-3,4.5-7.9,4.5
			c-4.3,0-9.9-1.3-17.4-4.1l0,0L197.2,106.2z"/>
	</g>
	<path class="st2" d="M374.8,91.8l5.7-6l-3.9-1.8l3.7-15.8l-22.8,0l5.1-22.2H345l-0.9-6c-0.1,0.3-5.7,6-5.7,6l-5.1,22.2l-10.7,0
		l-6.4-6l-5.7,6l-0.4,1.5L305,91.7l22.8,0l-5.1,22.2h24.2l5.7-6l-3.8-2.4l3.2-13.8L374.8,91.8z"/>
	<polygon class="st0" points="328.4,107.9 322.7,113.9 327.8,91.7 333.9,85.3 331.5,105.4 	"/>
	<polygon class="st0" points="310.7,85.7 305,91.7 310.4,68.1 316.2,62.2 319.3,69.6 311.7,85.3 	"/>
	<polygon class="st0" points="344.1,40 338.4,46 334.4,63.4 339.7,63.4 344.6,40.5 	"/>
	<path class="st3" d="M344.1,40h24.2l-15.8,68h-24.2L344.1,40z"/>
	<path class="st4" d="M310.7,85.7l5.5-23.6l69.8,0l-5.5,23.6L310.7,85.7z"/>
</g>
</svg>
