<?xml version="1.0" encoding="UTF-8" standalone="no"?>
<svg
   xmlns:dc="http://purl.org/dc/elements/1.1/"
   xmlns:cc="http://creativecommons.org/ns#"
   xmlns:rdf="http://www.w3.org/1999/02/22-rdf-syntax-ns#"
   xmlns:svg="http://www.w3.org/2000/svg"
   xmlns="http://www.w3.org/2000/svg"
   xmlns:sodipodi="http://sodipodi.sourceforge.net/DTD/sodipodi-0.dtd"
   xmlns:inkscape="http://www.inkscape.org/namespaces/inkscape"
   inkscape:export-ydpi="1213.63"
   inkscape:export-xdpi="1213.63"
   inkscape:export-filename="C:\Users\srija\Desktop\fp-electron\icon.png"
   version="1.1"
   id="Layer_1"
   x="0px"
   y="0px"
   viewBox="0 0 81.000001 73.899998"
   xml:space="preserve"
   sodipodi:docname="icon.svg"
   width="81"
   height="73.900002"
   inkscape:version="1.0 (4035a4fb49, 2020-05-01)"><metadata
   id="metadata924"><rdf:RDF><cc:Work
       rdf:about=""><dc:format>image/svg+xml</dc:format><dc:type
         rdf:resource="http://purl.org/dc/dcmitype/StillImage" /></cc:Work></rdf:RDF></metadata><defs
   id="defs922">
	
	
	
	
	
	
	
	
	
	
	
	
	
</defs><sodipodi:namedview
   inkscape:document-rotation="0"
   pagecolor="#ffffff"
   bordercolor="#666666"
   borderopacity="1"
   objecttolerance="10"
   gridtolerance="10"
   guidetolerance="10"
   inkscape:pageopacity="0"
   inkscape:pageshadow="2"
   inkscape:window-width="1920"
   inkscape:window-height="1000"
   id="namedview920"
   showgrid="false"
   inkscape:zoom="3.031695"
   inkscape:cx="-92.577576"
   inkscape:cy="32.55"
   inkscape:window-x="-11"
   inkscape:window-y="-11"
   inkscape:window-maximized="1"
   inkscape:current-layer="Layer_1" />
<style
   type="text/css"
   id="style879">
	.st0{fill:#FFFFFF;}
	.st1{fill:none;}
	.st2{fill:#98989A;}
	.st3{fill:#0066B2;}
	.st4{fill:#EC1C24;}
</style>
<g
   id="g950"
   transform="translate(-305,-40)"><path
     class="st2"
     d="m 374.8,91.8 5.7,-6 -3.9,-1.8 3.7,-15.8 H 357.5 L 362.6,46 H 345 l -0.9,-6 c -0.1,0.3 -5.7,6 -5.7,6 l -5.1,22.2 h -10.7 l -6.4,-6 -5.7,6 -0.4,1.5 -5.1,22 h 22.8 l -5.1,22.2 h 24.2 l 5.7,-6 -3.8,-2.4 3.2,-13.8 z"
     id="path905" /><polygon
     class="st0"
     points="331.5,105.4 328.4,107.9 322.7,113.9 327.8,91.7 333.9,85.3 "
     id="polygon907" /><polygon
     class="st0"
     points="319.3,69.6 311.7,85.3 310.7,85.7 305,91.7 310.4,68.1 316.2,62.2 "
     id="polygon909" /><polygon
     class="st0"
     points="344.6,40.5 344.1,40 338.4,46 334.4,63.4 339.7,63.4 "
     id="polygon911" /><path
     class="st3"
     d="m 344.1,40 h 24.2 l -15.8,68 h -24.2 z"
     id="path913" /><path
     class="st4"
     d="m 310.7,85.7 5.5,-23.6 H 386 l -5.5,23.6 z"
     id="path915" /></g>
</svg>
